<?xml version="1.0" encoding="UTF-8" standalone="no"?>
<svg  xmlns="http://www.w3.org/2000/svg" xmlns:xlink="http://www.w3.org/1999/xlink" data-name="Layer 1" viewBox="0 0 48 48"><title>Icon Design</title><rect fill="#FFFFFF" x="0.49" y="0.5" width="47" height="47" rx="9.5"></rect><path fill="#1f7a8c" d="M38 1a9 9 0 019 9v28a9 9 0 01-9 9H10a9 9 0 01-9-9V10a9 9 0 019-9h28m0-1H10A10 10 0 000 10v28a10 10 0 0010 10h28a10 10 0 0010-10V10A10 10 0 0038 0z"></path><path fill="#1f7a8c" d="M33.07 19.62c0 3.52-7.42 15.3-8.7 15.3s-8.7-11.73-8.7-15.3a8.7 8.7 0 1117.4 0z"></path><circle fill="#FFFFFF" cx="24.37" cy="19.57" r="4.68"></circle></svg>