<svg id="Layer_1" data-name="Layer 1" xmlns="http://www.w3.org/2000/svg" viewBox="0 0 72 72"><defs><style>.cls-1{fill:#1f7a8c;}.cls-2{fill:#fff;stroke:#1f7a8c;stroke-linecap:round;stroke-linejoin:round;}</style></defs><title>Icon Design</title><path class="cls-1" d="M62,1a9,9,0,0,1,9,9V62a9,9,0,0,1-9,9H10a9,9,0,0,1-9-9V10a9,9,0,0,1,9-9H62m0-1H10A10,10,0,0,0,0,10V62A10,10,0,0,0,10,72H62A10,10,0,0,0,72,62V10A10,10,0,0,0,62,0Z"/><polygon class="cls-2" points="53.44 47.77 36.75 55.88 36.75 36.33 53.44 28.22 53.44 47.77"/><polygon class="cls-2" points="20.06 47.77 36.75 55.88 36.75 36.33 20.06 28.22 20.06 47.77"/><polygon class="cls-2" points="36.75 36.09 20.06 27.98 36.27 19.88 53.44 27.98 36.75 36.09"/><polygon class="cls-1" points="43.42 32.75 26.74 24.64 30.55 22.74 47.72 30.84 43.42 32.75"/><polygon class="cls-1" points="43.38 37.52 43.28 33.13 47.72 31.03 48.01 35.13 43.38 37.52"/></svg>