<svg xmlns="http://www.w3.org/2000/svg" viewBox="0 0 72 72"><defs><style>.cls-1{fill:#1f7a8c;}.cls-2{fill:#fff;}.cls-2,.cls-3{stroke:#1f7a8c;stroke-miterlimit:10;}.cls-3{fill:none;stroke-linecap:round;}</style></defs><title>Icon Design</title><g id="Layer_1" data-name="Layer 1"><path class="cls-1" d="M62,1a9,9,0,0,1,9,9V62a9,9,0,0,1-9,9H10a9,9,0,0,1-9-9V10a9,9,0,0,1,9-9H62m0-1H10A10,10,0,0,0,0,10V62A10,10,0,0,0,10,72H62A10,10,0,0,0,72,62V10A10,10,0,0,0,62,0Z"/><path class="cls-2" d="M51.88,34.73l1.8-2.57a.72.72,0,0,0,.12-.55.75.75,0,0,0-.3-.48l-2.58-1.8.82-3a.74.74,0,0,0-.08-.56.72.72,0,0,0-.44-.34l-3-.81-.27-3.13a.77.77,0,0,0-.26-.51.81.81,0,0,0-.54-.17L44,21.05,42.65,18.2a.73.73,0,0,0-1-.35l-2.85,1.32L36.6,17a.74.74,0,0,0-1.05,0l-2.22,2.22-2.85-1.32a.68.68,0,0,0-.56,0,.75.75,0,0,0-.42.38l-1.33,2.85L25,20.78a.74.74,0,0,0-.8.67L24,24.58l-3,.81a.72.72,0,0,0-.44.34.74.74,0,0,0-.08.56l.82,3-2.58,1.8a.75.75,0,0,0-.3.48.72.72,0,0,0,.12.55l1.8,2.57-1.8,2.58a.72.72,0,0,0-.12.55.75.75,0,0,0,.3.48l2.58,1.8-.82,3a.74.74,0,0,0,.08.56.69.69,0,0,0,.44.34l3,.81L24.24,48a.77.77,0,0,0,.26.5.81.81,0,0,0,.54.17l3.13-.28,1.33,2.85a.72.72,0,0,0,.42.38.73.73,0,0,0,.56,0l2.85-1.33,2.22,2.22a.76.76,0,0,0,.52.22.74.74,0,0,0,.52-.22l2.23-2.22,2.85,1.33a.74.74,0,0,0,1-.36L44,48.42l3.14.27a.7.7,0,0,0,.53-.17.69.69,0,0,0,.26-.5l.28-3.13,3-.81a.74.74,0,0,0,.53-.9l-.82-3,2.58-1.8a.75.75,0,0,0,.3-.48.76.76,0,0,0-.12-.55Z"/></g><g id="Social"><line class="cls-3" x1="27.2" y1="37.35" x2="33.77" y2="43.92"/><line class="cls-3" x1="44.72" y1="26.4" x2="33.77" y2="43.92"/></g></svg>