<svg id="Layer_1" data-name="Layer 1" xmlns="http://www.w3.org/2000/svg" viewBox="0 0 100 100"><defs><style>.cls-1{fill:#fff;}.cls-2,.cls-3{fill:#1f7a8c;}.cls-3,.cls-4{stroke:#fff;stroke-miterlimit:10;}.cls-4{fill:none;stroke-linecap:round;stroke-width:2px;}</style></defs><title>Icon Design</title><rect class="cls-1" x="0.5" y="0.5" width="99" height="99" rx="9.5"/><path class="cls-2" d="M90,1a9,9,0,0,1,9,9V90a9,9,0,0,1-9,9H10a9,9,0,0,1-9-9V10a9,9,0,0,1,9-9H90m0-1H10A10,10,0,0,0,0,10V90a10,10,0,0,0,10,10H90a10,10,0,0,0,10-10V10A10,10,0,0,0,90,0Z"/><circle class="cls-3" cx="48.96" cy="51.04" r="25"/><line class="cls-4" x1="48.96" y1="36.46" x2="48.96" y2="51.04"/><line class="cls-4" x1="61.46" y1="63.54" x2="48.96" y2="51.04"/></svg>