<svg xmlns="http://www.w3.org/2000/svg" viewBox="0 0 48 48"><defs><style>.cls-1{fill:#fff;}.cls-2{fill:#4f5151;}</style></defs><title>Icon Design</title><g id="Layer_1" data-name="Layer 1"><rect class="cls-1" x="0.5" y="0.5" width="47" height="47" rx="11.5"/><path class="cls-2" d="M36,1A11,11,0,0,1,47,12V36A11,11,0,0,1,36,47H12A11,11,0,0,1,1,36V12A11,11,0,0,1,12,1H36m0-1H12A12,12,0,0,0,0,12V36A12,12,0,0,0,12,48H36A12,12,0,0,0,48,36V12A12,12,0,0,0,36,0Z"/></g><g id="Social"><path class="cls-2" d="M29.36,12.52h-3c-3.5,0-5.76,2.32-5.76,5.92v2.84h-3a.48.48,0,0,0-.49.49v4a.48.48,0,0,0,.49.49h3V36a.49.49,0,0,0,.49.49h4A.49.49,0,0,0,25.6,36V26.26h3.76a.48.48,0,0,0,.49-.49v-4a.5.5,0,0,0-.14-.35.54.54,0,0,0-.36-.14H25.6V19c0-1.14.26-1.71,1.69-1.71h2.07a.49.49,0,0,0,.49-.49V13A.49.49,0,0,0,29.36,12.52Z"/></g></svg>