<svg id="Layer_1" data-name="Layer 1" xmlns="http://www.w3.org/2000/svg" viewBox="0 0 72 72"><defs><style>.cls-1{fill:#1f7a8c;}.cls-2{fill:#fff;stroke-width:0.75px;}.cls-2,.cls-3{stroke:#1f7a8c;stroke-miterlimit:10;}.cls-3{fill:none;}</style></defs><title>Icon Design</title><path class="cls-1" d="M62,1a9,9,0,0,1,9,9V62a9,9,0,0,1-9,9H10a9,9,0,0,1-9-9V10a9,9,0,0,1,9-9H62m0-1H10A10,10,0,0,0,0,10V62A10,10,0,0,0,10,72H62A10,10,0,0,0,72,62V10A10,10,0,0,0,62,0Z"/><ellipse class="cls-1" cx="23.76" cy="36.53" rx="2.96" ry="6.22"/><ellipse class="cls-1" cx="47.47" cy="36.53" rx="2.96" ry="6.22"/><ellipse class="cls-2" cx="35.61" cy="36.53" rx="12.15" ry="14.22"/><circle class="cls-1" cx="35.61" cy="51.05" r="3"/><path class="cls-3" d="M38,51.05c5.34,0,9.19-3,9.19-8.59l.59-12.15c0-16-24-16-24,0"/></svg>