<svg xmlns="http://www.w3.org/2000/svg" viewBox="0 0 48 48"><defs><style>.cls-1{fill:#fff;}.cls-2{fill:#4f5151;}</style></defs><title>Icon Design</title><g id="Layer_1" data-name="Layer 1"><rect class="cls-1" x="0.5" y="0.5" width="47" height="47" rx="11.5"/><path class="cls-2" d="M36,1A11,11,0,0,1,47,12V36A11,11,0,0,1,36,47H12A11,11,0,0,1,1,36V12A11,11,0,0,1,12,1H36m0-1H12A12,12,0,0,0,0,12V36A12,12,0,0,0,12,48H36A12,12,0,0,0,48,36V12A12,12,0,0,0,36,0Z"/></g><g id="Social"><path class="cls-2" d="M29.48,12.63h-11A6.5,6.5,0,0,0,12,19.13v11a6.5,6.5,0,0,0,6.49,6.5h11a6.51,6.51,0,0,0,6.5-6.5v-11A6.51,6.51,0,0,0,29.48,12.63Zm0,22.59h-11a5.08,5.08,0,0,1-5.09-5.08v-11A5.09,5.09,0,0,1,18.47,14h11a5.09,5.09,0,0,1,5.09,5.09v11A5.08,5.08,0,0,1,29.48,35.22Z"/><path class="cls-2" d="M24,18.07a6.56,6.56,0,1,0,6.56,6.56A6.56,6.56,0,0,0,24,18.07Zm0,11.72a5.16,5.16,0,1,1,5.15-5.16A5.17,5.17,0,0,1,24,29.79Z"/><path class="cls-2" d="M30.7,15.74a1.94,1.94,0,1,0,1.94,1.94A1.94,1.94,0,0,0,30.7,15.74Zm0,2.47a.54.54,0,0,1-.54-.53.54.54,0,1,1,.54.53Z"/></g></svg>