<svg xmlns="http://www.w3.org/2000/svg" viewBox="0 0 48 48"><defs><style>.cls-1{fill:#fff;}.cls-2{fill:#4f5151;}</style></defs><title>Icon Design</title><g id="Layer_1" data-name="Layer 1"><rect class="cls-1" x="0.5" y="0.5" width="47" height="47" rx="11.5"/><path class="cls-2" d="M36,1A11,11,0,0,1,47,12V36A11,11,0,0,1,36,47H12A11,11,0,0,1,1,36V12A11,11,0,0,1,12,1H36m0-1H12A12,12,0,0,0,0,12V36A12,12,0,0,0,12,48H36A12,12,0,0,0,48,36V12A12,12,0,0,0,36,0Z"/></g><g id="Social"><rect class="cls-2" x="11.99" y="19.26" width="5.14" height="15.47"/><path class="cls-2" d="M34,20.73A5.54,5.54,0,0,0,29.75,19,6.25,6.25,0,0,0,28,19.2a4.13,4.13,0,0,0-1.36.68,7.26,7.26,0,0,0-.88.81,8.33,8.33,0,0,0-.61.82V19.26H20V20c0,.5,0,2,0,4.62s0,5.94,0,10.1h5.13V26.1a3.44,3.44,0,0,1,.15-1.26,3.38,3.38,0,0,1,1-1.34A2.52,2.52,0,0,1,27.9,23a2.22,2.22,0,0,1,2,.93,4.79,4.79,0,0,1,.66,2.57v8.32h5.14V25.92A7.49,7.49,0,0,0,34,20.73Z"/><path class="cls-2" d="M14.57,11.84a2.91,2.91,0,0,0-2.1.76,2.49,2.49,0,0,0-.8,1.91,2.55,2.55,0,0,0,.78,1.9,2.81,2.81,0,0,0,2.06.77h0a2.93,2.93,0,0,0,2.11-.77,2.45,2.45,0,0,0,.79-1.9,2.59,2.59,0,0,0-.8-1.91A2.83,2.83,0,0,0,14.57,11.84Z"/></g></svg>