<svg id="Layer_1" data-name="Layer 1" xmlns="http://www.w3.org/2000/svg" viewBox="0 0 100 100"><defs><style>.cls-1{fill:#fff;}.cls-2{fill:#1f7a8c;}</style></defs><title>Icon Design</title><rect class="cls-1" x="0.5" y="0.5" width="99" height="99" rx="13.95"/><path class="cls-2" d="M85.55,1A13.46,13.46,0,0,1,99,14.45v71.1A13.46,13.46,0,0,1,85.55,99H14.45A13.46,13.46,0,0,1,1,85.55V14.45A13.46,13.46,0,0,1,14.45,1h71.1m0-1H14.45A14.45,14.45,0,0,0,0,14.45v71.1A14.45,14.45,0,0,0,14.45,100h71.1A14.45,14.45,0,0,0,100,85.55V14.45A14.45,14.45,0,0,0,85.55,0Z"/><path class="cls-2" d="M27.74,34.8c6.44,5.46,17.74,15.06,21.07,18.05a2,2,0,0,0,2.84,0c3.32-3,14.63-12.59,21.07-18.05a1,1,0,0,0,.14-1.35,3.89,3.89,0,0,0-3.07-1.51H30.67a3.88,3.88,0,0,0-3.07,1.51A1,1,0,0,0,27.74,34.8Z"/><path class="cls-2" d="M74.62,36.76a1,1,0,0,0-1.11.15C65.9,43.36,56.19,51.63,53.13,54.39a4.22,4.22,0,0,1-5.81,0c-3.26-2.93-14.17-12.2-20.38-17.47a1,1,0,0,0-1.71.8V63.9a4.17,4.17,0,0,0,4.16,4.17H71.06a4.17,4.17,0,0,0,4.17-4.17V37.71A1,1,0,0,0,74.62,36.76Z"/></svg>