<svg id="Layer_1" data-name="Layer 1" xmlns="http://www.w3.org/2000/svg" viewBox="0 0 100 100"><defs><style>.cls-1{fill:#fff;}.cls-2{fill:#1f7a8c;}</style></defs><title>Icon Design</title><rect class="cls-1" x="0.5" y="0.5" width="99" height="99" rx="13.95"/><path class="cls-2" d="M85.55,1A13.46,13.46,0,0,1,99,14.45v71.1A13.46,13.46,0,0,1,85.55,99H14.45A13.46,13.46,0,0,1,1,85.55V14.45A13.46,13.46,0,0,1,14.45,1h71.1m0-1H14.45A14.45,14.45,0,0,0,0,14.45v71.1A14.45,14.45,0,0,0,14.45,100h71.1A14.45,14.45,0,0,0,100,85.55V14.45A14.45,14.45,0,0,0,85.55,0Z"/><path class="cls-2" d="M64.91,56.08a3.33,3.33,0,0,0-5,0c-1.18,1.17-2.35,2.33-3.51,3.52a.69.69,0,0,1-1,.18c-.76-.42-1.58-.75-2.31-1.21a36.76,36.76,0,0,1-8.81-8,21.24,21.24,0,0,1-3.16-5,.74.74,0,0,1,.18-.93c1.18-1.14,2.33-2.31,3.49-3.48a3.35,3.35,0,0,0,0-5.16L42,33.16c-.95-.95-1.89-1.91-2.86-2.85a3.35,3.35,0,0,0-5,0c-1.19,1.17-2.33,2.37-3.54,3.52a5.72,5.72,0,0,0-1.8,3.87,16.35,16.35,0,0,0,1.27,7,42.66,42.66,0,0,0,7.61,12.68,47.11,47.11,0,0,0,15.6,12.21,22.67,22.67,0,0,0,8.64,2.51,6.3,6.3,0,0,0,5.43-2.07c1-1.13,2.15-2.15,3.22-3.23a3.36,3.36,0,0,0,0-5.13Q67.75,58.9,64.91,56.08Z"/><path class="cls-2" d="M50,25.72a12.41,12.41,0,0,0-7.11-3.54l-.24,1.69a10.83,10.83,0,0,1,9.16,8.88l1.68-.29A12.53,12.53,0,0,0,50,25.72Z"/><path class="cls-2" d="M46,29.71a8.18,8.18,0,0,0-4.67-2.33l-.16,1.11a7.1,7.1,0,0,1,4,2,7,7,0,0,1,2,3.82l1.11-.19A8.23,8.23,0,0,0,46,29.71Z"/></svg>