<svg id="Layer_1" data-name="Layer 1" xmlns="http://www.w3.org/2000/svg" viewBox="0 0 48 48"><defs><style>.cls-1{fill:#fff;}.cls-2{fill:#1f7a8c;}</style></defs><title>Icon Design</title><rect class="cls-1" x="0.49" y="0.5" width="47" height="47" rx="9.5"/><path class="cls-2" d="M38,1a9,9,0,0,1,9,9V38a9,9,0,0,1-9,9H10a9,9,0,0,1-9-9V10a9,9,0,0,1,9-9H38m0-1H10A10,10,0,0,0,0,10V38A10,10,0,0,0,10,48H38A10,10,0,0,0,48,38V10A10,10,0,0,0,38,0Z"/><path class="cls-2" d="M33.07,19.62c0,3.52-7.42,15.3-8.7,15.3s-8.7-11.73-8.7-15.3a8.7,8.7,0,1,1,17.4,0Z"/><circle class="cls-1" cx="24.37" cy="19.57" r="4.68"/></svg>