<svg xmlns="http://www.w3.org/2000/svg" viewBox="0 0 48 48"><defs><style>.cls-1{fill:#fff;}.cls-2{fill:#4f5151;}</style></defs><title>Icon Design</title><g id="Layer_1" data-name="Layer 1"><rect class="cls-1" x="0.5" y="0.5" width="47" height="47" rx="11.5"/><path class="cls-2" d="M36,1A11,11,0,0,1,47,12V36A11,11,0,0,1,36,47H12A11,11,0,0,1,1,36V12A11,11,0,0,1,12,1H36m0-1H12A12,12,0,0,0,0,12V36A12,12,0,0,0,12,48H36A12,12,0,0,0,48,36V12A12,12,0,0,0,36,0Z"/></g><g id="Social"><path class="cls-2" d="M36.05,17a8.67,8.67,0,0,1-1.65.56,5.24,5.24,0,0,0,1.36-2.17h0a.27.27,0,0,0-.4-.31h0a9.31,9.31,0,0,1-2.53,1,.39.39,0,0,1-.15,0,.68.68,0,0,1-.45-.17,5.17,5.17,0,0,0-3.42-1.29,5.77,5.77,0,0,0-1.64.25,5,5,0,0,0-3.38,3.62,5.57,5.57,0,0,0-.12,1.9.21.21,0,0,1-.05.15.18.18,0,0,1-.14.06h0a13.56,13.56,0,0,1-9.32-5h0a.28.28,0,0,0-.45,0h0A5.19,5.19,0,0,0,14.53,22a4.56,4.56,0,0,1-1.18-.45h0a.27.27,0,0,0-.4.23h0a5.2,5.2,0,0,0,3,4.77h-.11A4.27,4.27,0,0,1,15,26.5h0a.27.27,0,0,0-.31.35h0a5.21,5.21,0,0,0,4.1,3.53A9.57,9.57,0,0,1,13.43,32h-.6a.39.39,0,0,0-.38.3.41.41,0,0,0,.19.45,14.22,14.22,0,0,0,7.14,1.93,14.42,14.42,0,0,0,6.1-1.3A13.48,13.48,0,0,0,30.34,30a14.94,14.94,0,0,0,2.73-4.58,14.37,14.37,0,0,0,.93-5v-.07a.88.88,0,0,1,.33-.69,10.54,10.54,0,0,0,2.06-2.26h0a.27.27,0,0,0-.34-.4Z"/></g></svg>