<svg xmlns="http://www.w3.org/2000/svg" viewBox="0 0 48 48"><defs><style>.cls-1{fill:#fff;}.cls-2{fill:#4f5151;}</style></defs><title>Icon Design</title><g id="Layer_1" data-name="Layer 1"><rect class="cls-1" x="0.5" y="0.5" width="47" height="47" rx="11.5"/><path class="cls-2" d="M36,1A11,11,0,0,1,47,12V36A11,11,0,0,1,36,47H12A11,11,0,0,1,1,36V12A11,11,0,0,1,12,1H36m0-1H12A12,12,0,0,0,0,12V36A12,12,0,0,0,12,48H36A12,12,0,0,0,48,36V12A12,12,0,0,0,36,0Z"/></g><g id="Social"><path class="cls-2" d="M24,29.86a1.06,1.06,0,0,0-1.84-.67c-1.22,1.46-3.51,4.12-3.64,4.45-.35,1,1.28,1.64,2.32,2a5.44,5.44,0,0,0,2.41.5.83.83,0,0,0,.67-.53C24.05,35.4,24,30.08,24,29.86Z"/><path class="cls-2" d="M23.5,12.84a.82.82,0,0,0-.65-.6c-1.05-.28-5,.83-5.73,1.62a.84.84,0,0,0-.25.83l5,8c1,1.63,2.31,1.14,2.23-.68h0c-.07-1.2-.55-8.77-.61-9.16Z"/><path class="cls-2" d="M21.38,27.44a1.09,1.09,0,0,0,.07-2c-2.15-.88-5.09-2.11-5.32-2.11-.88,0-1,1.2-1.14,2.09a11.1,11.1,0,0,0,0,2.23c.06.72.22,1.44.94,1.49.31,0,5.41-1.69,5.46-1.7Z"/><path class="cls-2" d="M32.54,24.25a.88.88,0,0,0,.35-.83,8.28,8.28,0,0,0-2.71-4,.82.82,0,0,0-.86,0c-.33.22-3.26,4.44-3.43,4.61A1.08,1.08,0,0,0,27,25.68v0C27.31,25.6,32.27,24.43,32.54,24.25Z"/><path class="cls-2" d="M27.32,27.78a1.08,1.08,0,0,0-1.21,1.58c.15.25,2.83,4.71,3.06,4.87a.8.8,0,0,0,.84.1,8.12,8.12,0,0,0,3-3.86.8.8,0,0,0-.28-.81c-.2-.18-5.41-1.88-5.41-1.88Z"/></g></svg>