<svg xmlns="http://www.w3.org/2000/svg" viewBox="0 0 48 48"><defs><style>.cls-1{fill:#fff;}.cls-2{fill:#4f5151;}</style></defs><title>Icon Design</title><g id="Layer_1" data-name="Layer 1"><rect class="cls-1" x="0.5" y="0.5" width="47" height="47" rx="11.5"/><path class="cls-2" d="M36,1A11,11,0,0,1,47,12V36A11,11,0,0,1,36,47H12A11,11,0,0,1,1,36V12A11,11,0,0,1,12,1H36m0-1H12A12,12,0,0,0,0,12V36A12,12,0,0,0,12,48H36A12,12,0,0,0,48,36V12A12,12,0,0,0,36,0Z"/></g><g id="Social"><path class="cls-2" d="M34.82,17.14c-.87-1-2.47-1.45-5.52-1.45H18.21c-3.13,0-4.75.45-5.62,1.54s-.84,2.65-.84,4.83v4.15c0,4.22,1,6.36,6.46,6.36H29.3c2.65,0,4.11-.37,5.06-1.28s1.39-2.45,1.39-5.08V22.06C35.75,19.76,35.69,18.17,34.82,17.14Zm-7.69,7.57-5,2.63a.77.77,0,0,1-.36.09.74.74,0,0,1-.59-.28.73.73,0,0,1-.18-.51V21.43a.85.85,0,0,1,.18-.53.8.8,0,0,1,1-.18l5,2.62a.77.77,0,0,1,0,1.37Z"/></g></svg>